<?xml version="1.0" encoding="UTF-8"?>
<!DOCTYPE svg PUBLIC "-//W3C//DTD SVG 1.1//EN" "http://www.w3.org/Graphics/SVG/1.1/DTD/svg11.dtd">
<svg xmlns="http://www.w3.org/2000/svg" version="1.1" width="20px" height="20px" style="shape-rendering:geometricPrecision; text-rendering:geometricPrecision; image-rendering:optimizeQuality; fill-rule:evenodd; clip-rule:evenodd" xmlns:xlink="http://www.w3.org/1999/xlink">
<g><path style="opacity:0.393" fill="#fefffe" d="M 6.5,-0.5 C 8.5,-0.5 10.5,-0.5 12.5,-0.5C 13.6002,0.558465 14.9336,1.3918 16.5,2C 17.3994,3.65161 18.3994,5.15161 19.5,6.5C 19.5,8.16667 19.5,9.83333 19.5,11.5C 18.4036,13.1032 17.0703,14.6032 15.5,16C 11.2822,16.8417 7.28216,18.0083 3.5,19.5C 2.5,19.5 1.5,19.5 0.5,19.5C 2.10573,16.4749 1.7724,13.8082 -0.5,11.5C -0.5,9.83333 -0.5,8.16667 -0.5,6.5C 0.558465,5.39977 1.3918,4.06644 2,2.5C 3.65161,1.60064 5.15161,0.60064 6.5,-0.5 Z M 16.5,7.5 C 13.8599,5.99223 11.5266,6.32556 9.5,8.5C 10.8333,10.1667 10.8333,11.8333 9.5,13.5C 11.0207,13.8797 12.6874,14.0464 14.5,14C 11.0293,15.036 7.52932,15.8693 4,16.5C 3.55064,13.868 2.7173,11.368 1.5,9C 2,7.5 2.5,6 3,4.5C 3.67076,3.74756 4.5041,3.41423 5.5,3.5C 9.06842,0.908358 12.5684,1.24169 16,4.5C 16.4828,5.44802 16.6495,6.44802 16.5,7.5 Z M 16.5,7.5 C 17.7122,9.26368 17.3788,10.9303 15.5,12.5C 15.1667,12 14.8333,11.5 14.5,11C 15.4295,9.9231 16.0962,8.75644 16.5,7.5 Z"/></g>
<g><path style="opacity:0.412" fill="#fefffe" d="M 5.5,3.5 C 8.16604,5.17231 8.83271,7.50564 7.5,10.5C 6.5,9.16667 5.5,9.16667 4.5,10.5C 3.72085,8.1152 4.05418,5.78186 5.5,3.5 Z"/></g>
</svg>
